<svg width="30" height="30" xmlns="http://www.w3.org/2000/svg">
 <defs>
  <style>.cls-1{fill:#111;}.cls-1,.cls-4{fill-rule:evenodd;}.cls-2{opacity:0.2;}.cls-3{fill:#edeceb;}.cls-4{fill:url(#linear-gradient);}.cls-5{fill:#58595b;}</style>
 </defs>
 <title>nuki-bridge</title>
 <g>
  <title>background</title>
  <rect fill="none" id="canvas_background" height="402" width="582" y="-1" x="-1"/>
 </g>
 <g>
  <title>Layer 1</title>
  <path id="svg_1" d="m4,0l22,0a4,4 0 0 1 4,4l0,22a4,4 0 0 1 -4,4l-22,0a4,4 0 0 1 -4,-4l0,-22a4,4 0 0 1 4,-4z" class="cls-1"/>
  <g id="svg_2" class="cls-2">
   <path id="svg_3" d="m15,9a6,6 0 1 1 -6,6a6,6 0 0 1 6,-6m0,-1a7,7 0 1 0 7,7a7,7 0 0 0 -7,-7l0,0z" class="cls-3"/>
  </g>
  <g id="svg_4" class="cls-2">
   <path fill="#ffff00" stroke="#fff" id="svg_5" d="m15,9a6,6 0 1 1 -6,6a6,6 0 0 1 6,-6z" class="cls-4"/>
  </g>
  <path id="svg_6" d="m11,25a0.05,0.05 0 0 1 0.06,-0.05l0.07,0l1.16,1.05l0,0l0,-1a0.06,0.06 0 0 1 0.06,0l0.35,0a0.06,0.06 0 0 1 0.06,0.06l0,2a0.05,0.05 0 0 1 -0.06,0.05l-0.08,0l-1.15,-1.16l0,0l0,1.09a0.06,0.06 0 0 1 -0.06,0.06l-0.35,0a0.06,0.06 0 0 1 -0.06,-0.16l0,-1.94z" class="cls-5"/>
  <path id="svg_7" d="m13.6,25a0.06,0.06 0 0 1 0.06,0l0.34,0a0.06,0.06 0 0 1 0.06,0.06l0,1.18a0.36,0.36 0 1 0 0.72,0l0,-1.24a0.06,0.06 0 0 1 0.07,0l0.36,0a0.06,0.06 0 0 1 0.06,0.06l0,1.21a0.83,0.83 0 0 1 -1.66,0l0,-1.27l-0.01,0z" class="cls-5"/>
  <path id="svg_8" d="m16.12,25a0.07,0.07 0 0 1 0.07,0l0.34,0a0.07,0.07 0 0 1 0.07,0.07l0,0.77l0.65,-0.84l0.06,0l0.37,0a0.07,0.07 0 0 1 0.05,0.11l-0.73,0.8l0.74,1a0.07,0.07 0 0 1 -0.06,0.11l-0.4,0l-0.05,0l-0.67,-0.92l0,0.87a0.07,0.07 0 0 1 -0.07,0.07l-0.3,0a0.07,0.07 0 0 1 -0.07,-0.07l0,-1.97z" class="cls-5"/>
  <path id="svg_9" d="m18.47,25a0.06,0.06 0 0 1 0.06,0l0.35,0a0.06,0.06 0 0 1 0.06,0.06l0,1.93a0.06,0.06 0 0 1 -0.06,0.06l-0.35,0a0.06,0.06 0 0 1 -0.06,-0.06l0,-1.99z" class="cls-5"/>
  <path id="svg_10" d="m18.4,23.76a0.3,0.3 0 0 1 0.29,-0.3a0.3,0.3 0 1 1 0,0.6a0.3,0.3 0 0 1 -0.29,-0.3z" class="cls-5"/>
  <circle id="svg_11" r="0.5" cy="4.75" cx="15"/>
  <ellipse stroke="#fff" ry="6.374968" rx="6.312468" id="svg_12" cy="15.054687" cx="15" stroke-width="0" fill="#ffff00"/>
 </g>
</svg>