<?xml version="1.0" encoding="utf-8"?>
<!-- Generator: Adobe Illustrator 23.0.4, SVG Export Plug-In . SVG Version: 6.00 Build 0)  -->
<svg version="1.1" id="Layer_1" xmlns="http://www.w3.org/2000/svg" xmlns:xlink="http://www.w3.org/1999/xlink" x="0px" y="0px"
	 width="30px" height="33px" viewBox="0 0 30 33" style="enable-background:new 0 0 30 33;" xml:space="preserve">
<style type="text/css">
	.st0{fill-rule:evenodd;clip-rule:evenodd;fill:#111111;}
	.st1{opacity:0.2;}
	.st2{fill:#EDECEB;}
	.st3{fill-rule:evenodd;clip-rule:evenodd;fill:url(#SVGID_1_);}
	.st4{fill:#58595B;}
	.st5{fill:#7F7F7F;}
	.st6{fill:#BFBFBF;}
</style>
<path class="st0" d="M4,0h22c2.2,0,4,1.8,4,4v22c0,2.2-1.8,4-4,4H4c-2.2,0-4-1.8-4-4V4C0,1.8,1.8,0,4,0z"/>
<g class="st1">
	<path class="st2" d="M15,9c3.3,0,6,2.7,6,6s-2.7,6-6,6s-6-2.7-6-6S11.7,9,15,9 M15,8c-3.9,0-7,3.1-7,7s3.1,7,7,7s7-3.1,7-7
		S18.9,8,15,8L15,8z"/>
</g>
<g class="st1">
	
		<linearGradient id="SVGID_1_" gradientUnits="userSpaceOnUse" x1="15" y1="11" x2="15" y2="23" gradientTransform="matrix(1 0 0 -1 0 32)">
		<stop  offset="0" style="stop-color:#FFFFFF;stop-opacity:0.2"/>
		<stop  offset="1" style="stop-color:#000000"/>
	</linearGradient>
	<path class="st3" d="M15,9c3.3,0,6,2.7,6,6s-2.7,6-6,6s-6-2.7-6-6S11.7,9,15,9z"/>
</g>
<path class="st4" d="M11,25C11,25,11,24.9,11,25C11.1,24.9,11.1,24.9,11,25l0.1,0l1.2,1l0,0v-1c0,0,0,0,0.1,0h0.3c0,0,0.1,0,0.1,0.1
	v2c0,0,0,0.1,0,0.1c0,0,0,0,0,0h-0.1l-1.1-1.2l0,0V27c0,0,0,0.1-0.1,0.1h-0.3c0,0-0.1,0-0.1,0c0,0,0-0.1,0-0.1V25z"/>
<path class="st4" d="M13.6,25C13.6,25,13.6,25,13.6,25H14c0,0,0.1,0,0.1,0.1v1.2c0,0.2,0.2,0.4,0.4,0.4c0.2,0,0.4-0.2,0.4-0.4V25
	c0,0,0,0,0.1,0h0.4c0,0,0.1,0,0.1,0.1v1.2c0,0.5-0.4,0.8-0.8,0.8c-0.5,0-0.8-0.4-0.8-0.8L13.6,25L13.6,25z"/>
<path class="st4" d="M16.1,25C16.1,25,16.2,25,16.1,25h0.4c0,0,0.1,0,0.1,0.1v0.8l0.6-0.8h0.1h0.4c0,0,0.1,0,0.1,0.1c0,0,0,0,0,0
	L17,25.9l0.7,1c0,0,0,0.1,0,0.1c0,0,0,0,0,0h-0.4h0l-0.7-0.9V27c0,0,0,0.1-0.1,0.1h-0.3c0,0-0.1,0-0.1-0.1V25z"/>
<path class="st4" d="M18.5,25C18.5,25,18.5,25,18.5,25h0.4c0,0,0.1,0,0.1,0.1V27c0,0,0,0.1-0.1,0.1h-0.4c0,0-0.1,0-0.1-0.1
	C18.5,27,18.5,25,18.5,25z"/>
<path class="st4" d="M18.4,23.8c0-0.2,0.1-0.3,0.3-0.3c0.2,0,0.3,0.1,0.3,0.3c0,0.2-0.1,0.3-0.3,0.3C18.5,24.1,18.4,23.9,18.4,23.8z
	"/>
<circle cx="15" cy="4.8" r="0.5"/>
<rect x="7.5" y="30" class="st5" width="15" height="1"/>
<g>
	<rect x="8.5" y="31" class="st6" width="1" height="2"/>
	<rect x="10.5" y="31" class="st6" width="1" height="2"/>
	<rect x="12.5" y="31" class="st6" width="1" height="2"/>
	<rect x="14.5" y="31" class="st6" width="1" height="2"/>
	<rect x="16.5" y="31" class="st6" width="1" height="2"/>
	<rect x="18.5" y="31" class="st6" width="1" height="2"/>
	<rect x="20.5" y="31" class="st6" width="1" height="2"/>
</g>
</svg>
